<svg width="16" height="18" viewBox="0 0 16 18" fill="none" xmlns="http://www.w3.org/2000/svg">
<path fill-rule="evenodd" clip-rule="evenodd" d="M9.28033 8.46967C9.57322 8.76256 9.57322 9.23744 9.28033 9.53033L1.78033 17.0303C1.48744 17.3232 1.01256 17.3232 0.71967 17.0303C0.426777 16.7374 0.426777 16.2626 0.71967 15.9697L7.68934 9L0.719671 2.03033C0.426777 1.73744 0.426777 1.26256 0.719671 0.96967C1.01256 0.676777 1.48744 0.676777 1.78033 0.96967L9.28033 8.46967Z" fill="#F9FCE9"/>
<path fill-rule="evenodd" clip-rule="evenodd" d="M15.2803 8.46967C15.5732 8.76256 15.5732 9.23744 15.2803 9.53033L7.78033 17.0303C7.48744 17.3232 7.01256 17.3232 6.71967 17.0303C6.42678 16.7374 6.42678 16.2626 6.71967 15.9697L13.6893 9L6.71967 2.03033C6.42678 1.73744 6.42678 1.26256 6.71967 0.96967C7.01256 0.676777 7.48744 0.676777 7.78033 0.96967L15.2803 8.46967Z" fill="#F9FCE9"/>
</svg>
